<?xml version="1.0" encoding="UTF-8"?><svg id="a" xmlns="http://www.w3.org/2000/svg" width="20" height="17.29" viewBox="0 0 20 17.29"><path d="M18,2H2v11h16V2Z" style="fill:none;"/><path d="M2,15h16c.55,0,1.02-.2,1.41-.59s.59-.86.59-1.41V2c0-.55-.2-1.02-.59-1.41s-.86-.59-1.41-.59H2C1.45,0,.98.2.59.59s-.59.86-.59,1.41v11c0,.55.2,1.02.59,1.41s.86.59,1.41.59ZM2.34,2h15.31c.19,0,.34.15.34.34v10.31c0,.19-.15.34-.34.34H2.34c-.19,0-.34-.15-.34-.34V2.34c0-.19.15-.34.34-.34Z" style="fill:#e8eaed;"/><polygon points="7.91 11.47 14.09 7.5 7.91 3.53 7.91 11.47" style="fill:#e8eaed;"/><rect x="4.03" y="15.76" width="11.94" height="1.53" rx=".29" ry=".29" style="fill:#e8eaed;"/></svg>