<?xml version="1.0" encoding="UTF-8"?><svg id="b" xmlns="http://www.w3.org/2000/svg" width="221.66" height="220.35" viewBox="0 0 221.66 220.35"><g id="c"><polygon points="218.73 21.32 215.59 0 205.21 1.53 215.5 21.79 218.73 21.32" style="fill:#fff;"/><polygon points="180.77 26.9 172.07 6.4 148.47 9.87 158.77 30.13 180.77 26.9" style="fill:#fff;"/><path d="M69.94,145.94c5.69-3.91,8.84-9.66,8.84-16.44,0-9.98-7.25-20.05-23.46-20.05-8.43,0-16.36,3.06-20.48,6.08l-1.8,1.33.76,2.11,2.53,7.04,1.34,3.73,3.23-2.3c2.69-1.92,7.6-4.17,12.56-4.17,6.15,0,9.54,2.76,9.54,7.78,0,6.68-7.74,9.1-12.95,9.1h-8.39v13.26h8.39c2.56,0,15.36.55,15.48,11.33.02,1.33-.2,4.67-2.8,7.32-2.29,2.33-5.77,3.51-10.37,3.51-5.81,0-11.69-2.41-14.22-4.04l-3.19-2.04-1.26,3.57-2.64,7.48-.78,2.22,1.97,1.29c3.75,2.46,11.3,5.33,20.24,5.33s16.24-2.49,21.48-7.2c4.9-4.4,7.59-10.53,7.59-17.25,0-8.35-4.38-15.28-11.59-18.98Z" style="fill:#fff;"/><polygon points="176.64 110.66 175.89 110.66 175.23 111.02 159.61 119.38 157.54 120.48 158.11 122.76 159.98 130.13 160.93 133.86 164.32 132.03 172.54 127.59 172.54 185.16 172.54 188.16 175.54 188.16 184.89 188.16 187.89 188.16 187.89 185.16 187.89 113.66 187.89 110.66 184.89 110.66 176.64 110.66" style="fill:#fff;"/><path d="M114.72,174.74l.32-.3.02-.02.02-.02c14.48-13.95,25.56-25.8,25.56-40.55,0-11.84-7.7-23.79-24.89-23.79-8.22,0-16.09,2.83-22.18,7.97l-1.73,1.46.93,2.07,3.08,6.82,1.62,3.6,3.03-2.53c2.4-2,7.31-5.35,13.26-5.35,7.43,0,11.19,3.69,11.19,10.97-.1,9.37-7.65,18.06-25.69,35.23l-7.61,7.39-.91.88v10.21h51.65v-14.03h-27.69Z" style="fill:#fff;"/><polygon points="124.04 35.23 115.34 14.74 90.68 18.36 100.97 38.62 124.04 35.23" style="fill:#fff;"/><path d="M217.73,58.02l-5.63,21.55h-35.1l7.23-21.55h-24.92l-5.63,21.55h-35.1l7.23-21.55h-23.85l-5.63,21.55h-35.1l7.23-21.55h-17.32l-5.62-11.25,20.7-3.04-8.7-20.5L2.44,31.33l-2.44-.24v51.26l4.67,4.33v120.33c0,7.36,5.97,13.33,13.33,13.33h190.33c7.36,0,13.33-5.97,13.33-13.33V58.02h-3.93ZM211.32,204.47c0,3.31-2.69,6-6,6H20.55c-3.31,0-6-2.69-6-6v-108.13c0-3.31,2.69-6,6-6h184.76c3.31,0,6,2.69,6,6v108.13Z" style="fill:#fff;"/></g></svg>