<?xml version="1.0" encoding="UTF-8"?><svg id="a" xmlns="http://www.w3.org/2000/svg" width="602.2" height="650.26" viewBox="0 0 602.2 650.26"><path d="M133.1,408.08c2.01,2.02-15.79,45.37-15.89,54.61-.12,11.65,13.43,21.33,21.97,27.81,83.81,63.54,249.21,62.51,330.38-5.44,11.78-9.86,17.66-13.37,14.03-29.97-3.48-15.95-11.69-30.95-14.5-47h47.5c17.96,0,29.62,17.32,34.76,32.24,19.68,57.12,33.03,119.41,50.61,177.39,1.49,16.46-4.52,28.21-21.49,31.27-181.85,2.6-363.98.32-545.94,1.15-5.86-1.11-11.91-.59-17.67-2.33-13.86-4.18-17.65-15.8-16.76-29.21,15.83-62.65,35.41-124.44,53.48-186.51,5.19-11.47,18.76-24,32-24h47.5Z" style="fill:#fff;"/><path d="M402.09,207.08l44.67,134.52c-26.74,28.12-63,46.95-101.45,53.19-34.7,5.63-76.54,4.7-110.43-4.99-30.07-8.6-57.4-25.61-79.28-47.68l44.51-135.03c30.77,23.35,67.02,39.54,106.54,38.05,35.25-1.34,67.84-17.28,95.44-38.05Z" style="fill:#fff;"/><path d="M363.11,91.07c-17.66,7.03-35.15,15.58-54.52,17-24.48,1.79-48.28-6.3-69.53-17.56C251.64,60.09,257.71-.61,301.62,0c42.96.6,49.22,60.63,61.49,91.06Z" style="fill:#fff;"/></svg>