<?xml version="1.0" encoding="UTF-8"?><svg id="a" xmlns="http://www.w3.org/2000/svg" width="139.73" height="123.64" viewBox="0 0 139.73 123.64"><path d="M80.64,66.22V5.41c0-3.49-1.92-5.41-5.41-5.41h-11.9c-3.49,0-5.41,1.92-5.41,5.41v28.88c0,.81,7.84,4.59,8.04,5.39,5.97,23.33,1.3,42-4.36,42.87,9.25.46,10.27,4.91,3.38,1.87,1.05-12.45,5.17-12.42,17-.46.1.1,2.43,4.98,2.57,4.98h27.94c3.49,0,5.41-1.92,5.41-5.41v-11.9c0-3.49-1.92-5.41-5.41-5.41h-31.85Z" style="fill:#02a9ff; fill-rule:evenodd;"/><path d="M31.25,0L0,88.93h24.28l5.29-15.38h26.44l5.17,15.38h24.16L54.2,0h-22.95ZM35.09,53.84l7.57-24.64,8.29,24.64s-15.86,0-15.86,0Z" style="fill:#fefefe; fill-rule:evenodd;"/></svg>