<?xml version="1.0" encoding="UTF-8"?>
<svg id="a" xmlns="http://www.w3.org/2000/svg" version="1.1" viewBox="0 0 139.7 123.6">
  <!-- Generator: Adobe Illustrator 29.0.1, SVG Export Plug-In . SVG Version: 2.1.0 Build 192)  -->
  <defs>
    <style>
      .st0 {
        fill: #fff;
      }

      .st1 {
        fill: #fcc;
      }

      .st2 {
        fill: none;
      }

      .st3 {
        fill: #f25555;
      }

      .st4 {
        fill: #02a9ff;
      }
    </style>
  </defs>
  <polygon class="st2" points="35.1 53.9 51 53.9 42.7 29.2 35.1 53.9"/>
  <path class="st4" d="M77.5,49.8c1-.4,2.1-.8,3.1-1.2V5.4c0-3.5-1.9-5.4-5.4-5.4h-11.9c-3.5,0-5.4,1.9-5.4,5.4v5.2l14.6,41.6c1.6-.9,3.3-1.7,5-2.4Z"/>
  <path class="st0" d="M58.7,69.7l-3.5-3.5,3.5-3.5c4.1-4.2,8.7-7.7,13.8-10.4l-14.6-41.6L54.2,0h-23L0,89h24.3l5.3-15.4h26.5l5.2,15.4h16.8s-19.3-19.3-19.3-19.3ZM35.1,53.9l7.6-24.6,8.3,24.6h-15.9,0Z"/>
  <path class="st1" d="M99.9,50.4c-7.1,0-13.9,1.3-20.4,4-6.5,2.7-12.2,6.6-17.2,11.7l37.6,37.6,8.6-8.6-5.5-5.7,11.6-11.4,5.5,5.5,17.5-17.5c-5-5.1-10.7-9-17.2-11.7-6.5-2.7-13.3-4-20.4-4Z"/>
  <polygon class="st3" points="120.3 91.5 113.7 84.9 109.3 89.3 115.9 95.9 109.3 102.5 113.7 106.9 120.3 100.4 126.8 106.9 131.2 102.5 124.7 95.9 131.2 89.3 126.8 84.9 120.3 91.5"/>
</svg>